<mxfile host="65bd71144e">
    <diagram name="ETL Flow Diagram" id="etl1">
        <mxGraphModel dx="2080" dy="1153" grid="1" gridSize="10" guides="1" tooltips="1" connect="1" arrows="1" fold="1" page="1" pageScale="1" pageWidth="827" pageHeight="1169" math="0" shadow="0">
            <root>
                <mxCell id="0"/>
                <mxCell id="1" parent="0"/>
                <mxCell id="2" value="Source Data:&amp;nbsp;&lt;div&gt;sales_data_mock.csv&lt;/div&gt;" style="shape=rectangle;whiteSpace=wrap;html=1;" parent="1" vertex="1">
                    <mxGeometry x="305" y="140" width="200" height="60" as="geometry"/>
                </mxCell>
                <mxCell id="3" value="Data Ingestion&amp;nbsp;&lt;div&gt;(Python read_csv)&lt;/div&gt;" style="shape=rectangle;whiteSpace=wrap;html=1;" parent="1" vertex="1">
                    <mxGeometry x="305" y="260" width="200" height="60" as="geometry"/>
                </mxCell>
                <mxCell id="4" value="Data Cleansing&amp;nbsp;&lt;div&gt;(Date fix, round price)&lt;/div&gt;" style="shape=rectangle;whiteSpace=wrap;html=1;" parent="1" vertex="1">
                    <mxGeometry x="305" y="380" width="200" height="60" as="geometry"/>
                </mxCell>
                <mxCell id="6" value="Export to Clean Dataset:&lt;div&gt;sales_data_cleaned.csv&lt;/div&gt;" style="shape=cylinder;whiteSpace=wrap;html=1;" parent="1" vertex="1">
                    <mxGeometry x="305" y="644.5" width="200" height="100" as="geometry"/>
                </mxCell>
                <mxCell id="7" value="Power BI Dashboard" style="shape=document;whiteSpace=wrap;html=1;" parent="1" vertex="1">
                    <mxGeometry x="305" y="810" width="200" height="60" as="geometry"/>
                </mxCell>
                <mxCell id="e1" style="edgeStyle=orthogonalEdgeStyle;endArrow=block;" parent="1" source="2" target="3" edge="1">
                    <mxGeometry relative="1" as="geometry"/>
                </mxCell>
                <mxCell id="e2" style="edgeStyle=orthogonalEdgeStyle;endArrow=block;" parent="1" source="3" target="4" edge="1">
                    <mxGeometry relative="1" as="geometry"/>
                </mxCell>
                <mxCell id="e3" style="edgeStyle=orthogonalEdgeStyle;endArrow=block;" parent="1" source="4" target="8" edge="1">
                    <mxGeometry relative="1" as="geometry">
                        <mxPoint x="405" y="510" as="targetPoint"/>
                    </mxGeometry>
                </mxCell>
                <mxCell id="e4" style="edgeStyle=orthogonalEdgeStyle;endArrow=block;exitX=0.5;exitY=1;exitDx=0;exitDy=0;" parent="1" source="8" target="6" edge="1">
                    <mxGeometry relative="1" as="geometry">
                        <mxPoint x="405" y="570" as="sourcePoint"/>
                    </mxGeometry>
                </mxCell>
                <mxCell id="e5" style="edgeStyle=orthogonalEdgeStyle;endArrow=block;" parent="1" source="6" target="7" edge="1">
                    <mxGeometry relative="1" as="geometry"/>
                </mxCell>
                <mxCell id="8" value="&lt;span style=&quot;color: rgb(0, 0, 0);&quot;&gt;Transformation Rules&lt;/span&gt;&lt;div&gt;(Status map, Total)&lt;/div&gt;" style="rhombus;whiteSpace=wrap;html=1;" vertex="1" parent="1">
                    <mxGeometry x="300" y="500" width="210" height="80" as="geometry"/>
                </mxCell>
                <mxCell id="9" value="&lt;b&gt;&lt;font style=&quot;font-size: 16px;&quot;&gt;RETAIL SALES DATA ETL PIPELINE&lt;/font&gt;&lt;/b&gt;" style="text;html=1;align=center;verticalAlign=middle;whiteSpace=wrap;rounded=0;" vertex="1" parent="1">
                    <mxGeometry x="265" y="70" width="280" height="30" as="geometry"/>
                </mxCell>
            </root>
        </mxGraphModel>
    </diagram>
</mxfile>